<svg width="336.065234375px" height="121.60000610351562px" xmlns="http://www.w3.org/2000/svg" viewBox="81.9673828125 14.199996948242188 336.065234375 121.60000610351562" style="background: rgb(253, 253, 253);" preserveAspectRatio="xMidYMid"><defs><linearGradient id="editing-sticker-gradient" x1="0.5" y1="0.2" x2="0.5" y2="0.8"><stop offset="0" stop-color="#ae85b6"></stop><stop offset="1" stop-color="#77acd7"></stop></linearGradient><filter id="editing-sticker" x="-100%" y="-100%" width="300%" height="300%"><feMorphology operator="erode" radius="1" in="SourceAlpha" result="alpha-erode"></feMorphology><feConvolveMatrix order="3,3" divisor="1" kernelMatrix="0 1 0 1 1 1 0 1 0" in="alpha-erode" result="alpha-round"></feConvolveMatrix><feMorphology operator="dilate" radius="3.5" in="alpha-round" result="dilate-shadow"></feMorphology><feGaussianBlur in="dilate-shadow" stdDeviation="1.5" result="shadow"></feGaussianBlur><feFlood flood-color="#fff" result="flood-sticker"></feFlood><feComposite operator="in" in="flood-sticker" in2="alpha-round" result="comp-sticker"></feComposite><feMorphology operator="dilate" radius="3" in="comp-sticker" result="morph-sticker"></feMorphology><feConvolveMatrix order="3,3" divisor="1" kernelMatrix="0 1 0 1 1 1 0 1 0" in="morph-sticker" result="sticker"></feConvolveMatrix><feMerge><feMergeNode in="shadow"></feMergeNode><feMergeNode in="sticker"></feMergeNode><feMergeNode in="SourceGraphic"></feMergeNode></feMerge></filter></defs><g filter="url(#editing-sticker)"><g transform="translate(134.58659183979034, 104.78999710083008)"><path d="M6.53 0L-0.83 0L10.75-42.24L24.13-42.24L27.07-18.11L38.98-42.24L50.18-42.24L51.33-10.62L51.33-10.62Q51.58-4.35 54.66-2.43L54.66-2.43L54.66-2.43Q53.95-1.15 51.90 0.06L51.90 0.06L51.90 0.06Q49.86 1.28 47.14 1.28L47.14 1.28L47.14 1.28Q44.42 1.28 42.82 0.51L42.82 0.51L42.82 0.51Q41.22-0.26 40.32-1.54L40.32-1.54L40.32-1.54Q38.72-3.84 38.72-8.26L38.72-8.26L38.72-28.03L26.11 0L18.18 0L13.70-28.74L6.53 0ZM60.19-1.92L60.19-1.92L60.19-1.92Q58.69-3.58 58.02-6.21L58.02-6.21L58.02-6.21Q57.34-8.83 57.34-13.12L57.34-13.12L57.34-13.12Q57.34-17.41 58.82-21.31L58.82-21.31L58.82-21.31Q60.29-25.22 62.98-28.03L62.98-28.03L62.98-28.03Q68.48-33.92 77.57-33.92L77.57-33.92L77.57-33.92Q80.83-33.92 83.20-32.83L83.20-32.83L94.14-33.92L89.41-8.96L89.41-8.96Q89.22-8.19 89.22-6.78L89.22-6.78L89.22-6.78Q89.22-5.38 90.08-4.48L90.08-4.48L90.08-4.48Q90.94-3.58 92.22-3.46L92.22-3.46L92.22-3.46Q91.58-1.28 89.25 0L89.25 0L89.25 0Q86.91 1.28 84.29 1.28L84.29 1.28L84.29 1.28Q81.66 1.28 79.90 0.29L79.90 0.29L79.90 0.29Q78.14-0.70 77.63-2.37L77.63-2.37L77.63-2.37Q76.61-0.77 74.43 0.26L74.43 0.26L74.43 0.26Q72.26 1.28 69.34 1.28L69.34 1.28L69.34 1.28Q66.43 1.28 64.06 0.51L64.06 0.51L64.06 0.51Q61.70-0.26 60.19-1.92ZM73.70-27.90L73.70-27.90L73.70-27.90Q72.96-26.75 72.32-24.80L72.32-24.80L72.32-24.80Q71.68-22.85 70.62-17.63L70.62-17.63L70.62-17.63Q69.57-12.42 69.57-8.70L69.57-8.70L69.57-8.70Q69.57-4.99 70.14-3.90L70.14-3.90L70.14-3.90Q70.72-2.82 71.74-2.82L71.74-2.82L71.74-2.82Q73.79-2.82 75.30-4.77L75.30-4.77L75.30-4.77Q76.80-6.72 77.38-10.18L77.38-10.18L80.77-28.93L80.77-28.93Q79.42-30.08 77.86-30.08L77.86-30.08L77.86-30.08Q76.29-30.08 75.36-29.57L75.36-29.57L75.36-29.57Q74.43-29.06 73.70-27.90ZM117.95-7.23L117.95-7.23L117.95-7.23Q114.62-3.78 108.54-3.78L108.54-3.78L108.54-3.78Q100.93-3.78 99.33-9.34L99.33-9.34L99.33-9.34Q98.82-11.01 98.82-12.86L98.82-12.86L98.82-12.86Q98.82-14.72 99.20-16.64L99.20-16.64L102.21-32.64L115.20-33.92L111.68-15.30L111.68-15.30Q111.55-14.46 111.36-13.57L111.36-13.57L111.36-13.57Q111.17-12.67 111.17-11.74L111.17-11.74L111.17-11.74Q111.17-10.82 111.49-10.21L111.49-10.21L111.49-10.21Q111.81-9.60 112.26-9.22L112.26-9.22L112.26-9.22Q113.02-8.70 114.40-8.70L114.40-8.70L114.40-8.70Q115.78-8.70 116.96-10.37L116.96-10.37L116.96-10.37Q118.14-12.03 118.72-14.91L118.72-14.91L122.24-32.64L134.85-33.92L130.05-8.77L130.05-8.77Q127.68 3.52 122.82 8.38L122.82 8.38L122.82 8.38Q120.32 10.88 117.09 11.87L117.09 11.87L117.09 11.87Q113.86 12.86 109.70 12.86L109.70 12.86L109.70 12.86Q102.98 12.86 99.14 10.75L99.14 10.75L99.14 10.75Q95.30 8.64 95.30 5.12L95.30 5.12L95.30 5.12Q95.30 2.50 97.28 0.99L97.28 0.99L97.28 0.99Q99.26-0.51 102.34-0.51L102.34-0.51L102.34-0.51Q105.02-0.51 107.07 0.64L107.07 0.64L107.07 0.64Q108.29 1.34 108.86 2.24L108.86 2.24L108.86 2.24Q107.39 3.52 107.39 5.63L107.39 5.63L107.39 5.63Q107.39 8.45 109.95 8.45L109.95 8.45L109.95 8.45Q114.18 8.45 116.61-1.28L116.61-1.28L116.61-1.28Q117.31-4.16 117.95-7.23ZM157.70-2.69L157.70-2.69L157.70-2.69Q154.62 1.28 147.01 1.28L147.01 1.28L147.01 1.28Q143.04 1.28 140.16-1.12L140.16-1.12L140.16-1.12Q137.28-3.52 137.28-6.98L137.28-6.98L137.28-6.98Q137.28-8.90 137.47-9.86L137.47-9.86L141.76-32.64L154.75-33.92L150.08-9.22L150.08-9.22Q149.82-7.81 149.82-6.98L149.82-6.98L149.82-6.98Q149.82-3.26 152.06-3.26L152.06-3.26L152.06-3.26Q154.56-3.26 156.35-6.66L156.35-6.66L156.35-6.66Q156.93-7.74 157.18-9.15L157.18-9.15L161.73-32.64L174.34-33.92L169.60-8.96L169.60-8.96Q169.41-8 169.41-6.98L169.41-6.98L169.41-6.98Q169.41-5.95 169.98-4.83L169.98-4.83L169.98-4.83Q170.56-3.71 172.42-3.46L172.42-3.46L172.42-3.46Q172.03-1.92 170.69-0.90L170.69-0.90L170.69-0.90Q167.87 1.28 164.83 1.28L164.83 1.28L164.83 1.28Q161.79 1.28 160 0.19L160 0.19L160 0.19Q158.21-0.90 157.70-2.69ZM197.82-17.98L197.82-17.98L197.82-17.98Q200.13-22.08 200.13-26.24L200.13-26.24L200.13-26.24Q200.13-28.99 198.14-28.99L198.14-28.99L198.14-28.99Q196.61-28.99 195.01-26.37L195.01-26.37L195.01-26.37Q193.34-23.74 192.83-20.35L192.83-20.35L189.50 0L176.26 1.28L182.78-32.64L193.34-33.92L192.19-27.46L192.19-27.46Q195.33-33.92 202.37-33.92L202.37-33.92L202.37-33.92Q206.08-33.92 208.10-32L208.10-32L208.10-32Q210.11-30.08 210.11-26.14L210.11-26.14L210.11-26.14Q210.11-22.21 207.52-19.71L207.52-19.71L207.52-19.71Q204.93-17.22 200.51-17.22L200.51-17.22L200.51-17.22Q198.59-17.22 197.82-17.98ZM226.50-3.52L226.50-3.52L226.50-3.52Q224.51 1.28 218.18 1.28L218.18 1.28L218.18 1.28Q214.91 1.28 212.86-0.96L212.86-0.96L212.86-0.96Q211.14-2.94 211.14-4.93L211.14-4.93L211.14-4.93Q211.14-10.11 213.50-20.22L213.50-20.22L215.87-32.64L228.86-33.92L224.96-13.70L224.96-13.70Q223.87-8.96 223.87-7.30L223.87-7.30L223.87-7.30Q223.87-3.65 226.50-3.52ZM217.02-41.54L217.02-41.54L217.02-41.54Q217.02-44.03 219.10-45.38L219.10-45.38L219.10-45.38Q221.18-46.72 224.19-46.72L224.19-46.72L224.19-46.72Q227.20-46.72 229.02-45.38L229.02-45.38L229.02-45.38Q230.85-44.03 230.85-41.54L230.85-41.54L230.85-41.54Q230.85-39.04 228.83-37.76L228.83-37.76L228.83-37.76Q226.82-36.48 223.81-36.48L223.81-36.48L223.81-36.48Q220.80-36.48 218.91-37.76L218.91-37.76L218.91-37.76Q217.02-39.04 217.02-41.54Z" fill="url(#editing-sticker-gradient)" stroke="#dce4eb" stroke-width="2.5"></path></g></g><style>text {
  font-size: 64px;
  font-family: Arial Black;
  dominant-baseline: central;
  text-anchor: middle;
}</style></svg>