<svg width="435.53749999999997px" height="121.60000610351562px" xmlns="http://www.w3.org/2000/svg" viewBox="32.23125000000002 14.199996948242188 435.53749999999997 121.60000610351562" style="background: rgb(253, 253, 253);" preserveAspectRatio="xMidYMid"><defs><linearGradient id="editing-sticker-gradient" x1="0.5" y1="0.2" x2="0.5" y2="0.8"><stop offset="0" stop-color="#ae85b6"></stop><stop offset="1" stop-color="#77acd7"></stop></linearGradient><filter id="editing-sticker" x="-100%" y="-100%" width="300%" height="300%"><feMorphology operator="erode" radius="1" in="SourceAlpha" result="alpha-erode"></feMorphology><feConvolveMatrix order="3,3" divisor="1" kernelMatrix="0 1 0 1 1 1 0 1 0" in="alpha-erode" result="alpha-round"></feConvolveMatrix><feMorphology operator="dilate" radius="3.5" in="alpha-round" result="dilate-shadow"></feMorphology><feGaussianBlur in="dilate-shadow" stdDeviation="1.5" result="shadow"></feGaussianBlur><feFlood flood-color="#fff" result="flood-sticker"></feFlood><feComposite operator="in" in="flood-sticker" in2="alpha-round" result="comp-sticker"></feComposite><feMorphology operator="dilate" radius="3" in="comp-sticker" result="morph-sticker"></feMorphology><feConvolveMatrix order="3,3" divisor="1" kernelMatrix="0 1 0 1 1 1 0 1 0" in="morph-sticker" result="sticker"></feConvolveMatrix><feMerge><feMergeNode in="shadow"></feMergeNode><feMergeNode in="sticker"></feMergeNode><feMergeNode in="SourceGraphic"></feMergeNode></feMerge></filter></defs><g filter="url(#editing-sticker)"><g transform="translate(97.45498591661453, 98.67999649047852)"><path d="M7.68 0L0.64 0L8.32-42.24L22.08-42.24L32.06-13.18L37.38-42.24L44.48-42.18L36.67 0L22.02 0L12.80-27.97L7.68 0ZM48.86-1.92L48.86-1.92L48.86-1.92Q47.36-3.58 46.69-6.21L46.69-6.21L46.69-6.21Q46.02-8.83 46.02-13.12L46.02-13.12L46.02-13.12Q46.02-17.41 47.49-21.31L47.49-21.31L47.49-21.31Q48.96-25.22 51.65-28.03L51.65-28.03L51.65-28.03Q57.15-33.92 66.24-33.92L66.24-33.92L66.24-33.92Q69.50-33.92 71.87-32.83L71.87-32.83L82.82-33.92L78.08-8.96L78.08-8.96Q77.89-8.19 77.89-6.78L77.89-6.78L77.89-6.78Q77.89-5.38 78.75-4.48L78.75-4.48L78.75-4.48Q79.62-3.58 80.90-3.46L80.90-3.46L80.90-3.46Q80.26-1.28 77.92 0L77.92 0L77.92 0Q75.58 1.28 72.96 1.28L72.96 1.28L72.96 1.28Q70.34 1.28 68.58 0.29L68.58 0.29L68.58 0.29Q66.82-0.70 66.30-2.37L66.30-2.37L66.30-2.37Q65.28-0.77 63.10 0.26L63.10 0.26L63.10 0.26Q60.93 1.28 58.02 1.28L58.02 1.28L58.02 1.28Q55.10 1.28 52.74 0.51L52.74 0.51L52.74 0.51Q50.37-0.26 48.86-1.92ZM62.37-27.90L62.37-27.90L62.37-27.90Q61.63-26.75 60.99-24.80L60.99-24.80L60.99-24.80Q60.35-22.85 59.30-17.63L59.30-17.63L59.30-17.63Q58.24-12.42 58.24-8.70L58.24-8.70L58.24-8.70Q58.24-4.99 58.82-3.90L58.82-3.90L58.82-3.90Q59.39-2.82 60.42-2.82L60.42-2.82L60.42-2.82Q62.46-2.82 63.97-4.77L63.97-4.77L63.97-4.77Q65.47-6.72 66.05-10.18L66.05-10.18L69.44-28.93L69.44-28.93Q68.10-30.08 66.53-30.08L66.53-30.08L66.53-30.08Q64.96-30.08 64.03-29.57L64.03-29.57L64.03-29.57Q63.10-29.06 62.37-27.90ZM106.30-17.98L106.30-17.98L106.30-17.98Q108.61-22.08 108.61-26.24L108.61-26.24L108.61-26.24Q108.61-28.99 106.62-28.99L106.62-28.99L106.62-28.99Q105.09-28.99 103.49-26.37L103.49-26.37L103.49-26.37Q101.82-23.74 101.31-20.35L101.31-20.35L97.98 0L84.74 1.28L91.26-32.64L101.82-33.92L100.67-27.46L100.67-27.46Q103.81-33.92 110.85-33.92L110.85-33.92L110.85-33.92Q114.56-33.92 116.58-32L116.58-32L116.58-32Q118.59-30.08 118.59-26.14L118.59-26.14L118.59-26.14Q118.59-22.21 116-19.71L116-19.71L116-19.71Q113.41-17.22 108.99-17.22L108.99-17.22L108.99-17.22Q107.07-17.22 106.30-17.98ZM136.13-30.34L136.13-30.34L136.13-30.34Q139.58-33.92 146.88-33.92L146.88-33.92L146.88-33.92Q150.91-33.92 153.12-31.78L153.12-31.78L153.12-31.78Q155.33-29.63 155.33-25.70L155.33-25.70L155.33-25.70Q155.33-21.76 153.12-18.98L153.12-18.98L153.12-18.98Q150.91-16.19 146.82-15.04L146.82-15.04L146.82-15.04Q147.14-13.76 147.58-12.42L147.58-12.42L148.48-9.86L148.48-9.86Q149.70-6.59 150.66-5.44L150.66-5.44L150.66-5.44Q151.62-4.29 152.90-3.90L152.90-3.90L152.90-3.90Q152.19-1.28 149.63 0.13L149.63 0.13L149.63 0.13Q147.58 1.28 144.77 1.28L144.77 1.28L144.77 1.28Q136.51 1.28 135.42-11.46L135.42-11.46L135.42-11.46Q135.23-13.25 135.23-15.04L135.23-15.04L135.23-15.04Q138.43-15.94 140.67-18.94L140.67-18.94L140.67-18.94Q142.91-21.95 142.91-25.47L142.91-25.47L142.91-25.47Q142.91-28.99 140.42-28.99L140.42-28.99L140.42-28.99Q138.62-28.99 137.22-27.01L137.22-27.01L137.22-27.01Q135.81-25.02 135.17-21.63L135.17-21.63L130.94 0L118.02 1.28L126.98-44.80L139.84-46.08L138.37-38.46L138.37-38.46Q137.41-33.09 136.13-30.34ZM190.46-7.10L190.46-7.10L190.46-7.10Q190.46-4.29 193.34-3.46L193.34-3.46L193.34-3.46Q192.64-1.09 189.89 0.19L189.89 0.19L189.89 0.19Q187.58 1.28 185.06 1.28L185.06 1.28L185.06 1.28Q182.53 1.28 181.22 0.61L181.22 0.61L181.22 0.61Q179.90-0.06 179.20-1.15L179.20-1.15L179.20-1.15Q178.05-2.82 178.05-5.95L178.05-5.95L178.05-5.95Q178.05-7.81 179.07-12.93L179.07-12.93L179.97-17.79L179.97-17.79Q181.06-23.36 181.06-25.41L181.06-25.41L181.06-25.41Q181.06-28.99 179.07-28.99L179.07-28.99L179.07-28.99Q176.58-28.99 174.98-25.34L174.98-25.34L174.98-25.34Q174.34-23.94 173.89-21.82L173.89-21.82L169.54 0L156.67 1.28L165.70-44.80L178.56-46.08L178.05-43.52L178.05-43.52Q176.26-33.66 174.72-30.34L174.72-30.34L174.72-30.34Q178.30-33.92 184.90-33.92L184.90-33.92L184.90-33.92Q191.87-33.92 193.15-29.31L193.15-29.31L193.15-29.31Q193.60-27.84 193.60-26.56L193.60-26.56L193.60-26.56Q193.60-25.28 193.50-24.29L193.50-24.29L193.50-24.29Q193.41-23.30 193.09-21.50L193.09-21.50L192.26-16.90L190.78-9.66L190.78-9.66Q190.46-8.19 190.46-7.10ZM224.45-10.82L224.45-10.82L224.45-10.82Q226.05-9.73 226.05-7.33L226.05-7.33L226.05-7.33Q226.05-4.93 224.83-3.39L224.83-3.39L224.83-3.39Q223.62-1.86 221.63-0.83L221.63-0.83L221.63-0.83Q217.54 1.28 213.12 1.28L213.12 1.28L213.12 1.28Q208.70 1.28 206.11 0.32L206.11 0.32L206.11 0.32Q203.52-0.64 201.79-2.43L201.79-2.43L201.79-2.43Q198.40-5.82 198.40-12.03L198.40-12.03L198.40-12.03Q198.40-21.70 203.65-27.58L203.65-27.58L203.65-27.58Q209.28-33.92 219.07-33.92L219.07-33.92L219.07-33.92Q225.15-33.92 228.16-31.36L228.16-31.36L228.16-31.36Q230.40-29.44 230.40-26.30L230.40-26.30L230.40-26.30Q230.40-15.04 210.94-15.04L210.94-15.04L210.94-15.04Q210.69-13.38 210.69-11.97L210.69-11.97L210.69-11.97Q210.69-9.02 212-7.90L212-7.90L212-7.90Q213.31-6.78 215.74-6.78L215.74-6.78L215.74-6.78Q218.18-6.78 220.77-7.90L220.77-7.90L220.77-7.90Q223.36-9.02 224.45-10.82ZM211.39-17.79L211.39-17.79L211.39-17.79Q215.94-17.79 218.56-20.61L218.56-20.61L218.56-20.61Q221.18-23.30 221.18-27.58L221.18-27.58L221.18-27.58Q221.18-29.06 220.64-29.86L220.64-29.86L220.64-29.86Q220.10-30.66 219.01-30.66L219.01-30.66L219.01-30.66Q217.92-30.66 216.99-30.24L216.99-30.24L216.99-30.24Q216.06-29.82 215.10-28.42L215.10-28.42L215.10-28.42Q212.74-25.22 211.39-17.79ZM252.74-33.92L252.74-33.92L252.74-33.92Q255.04-33.92 256.83-33.41L256.83-33.41L256.83-33.41Q256.90-33.66 257.02-34.37L257.02-34.37L257.34-36.35L257.34-36.35Q257.60-37.63 257.98-39.74L257.98-39.74L259.01-44.80L271.74-46.08L264.64-8.96L264.64-8.96Q264.58-8.58 264.58-7.94L264.58-7.94L264.58-6.91L264.58-6.91Q264.58-5.50 265.28-4.45L265.28-4.45L265.28-4.45Q265.98-3.39 267.14-3.39L267.14-3.39L267.14-3.39Q265.86-0.38 261.95 0.90L261.95 0.90L261.95 0.90Q260.61 1.28 258.72 1.28L258.72 1.28L258.72 1.28Q256.83 1.28 255.10 0.29L255.10 0.29L255.10 0.29Q253.38-0.70 252.86-2.37L252.86-2.37L252.86-2.37Q251.84-0.70 249.79 0.29L249.79 0.29L249.79 0.29Q247.74 1.28 244.77 1.28L244.77 1.28L244.77 1.28Q241.79 1.28 239.33 0.51L239.33 0.51L239.33 0.51Q236.86-0.26 235.33-1.92L235.33-1.92L235.33-1.92Q232.51-5.18 232.51-12.61L232.51-12.61L232.51-12.61Q232.51-22.21 238.14-28.03L238.14-28.03L238.14-28.03Q243.78-33.92 252.74-33.92ZM252.29-30.08L252.29-30.08L252.29-30.08Q249.92-30.08 248.64-27.52L248.64-27.52L248.64-27.52Q247.36-24.96 246.05-18.62L246.05-18.62L246.05-18.62Q244.74-12.29 244.74-6.59L244.74-6.59L244.74-6.59Q244.74-2.69 247.04-2.69L247.04-2.69L247.04-2.69Q249.09-2.69 250.53-4.74L250.53-4.74L250.53-4.74Q251.97-6.78 252.54-10.18L252.54-10.18L256-28.93L256-28.93Q254.66-30.08 252.29-30.08ZM298.50-10.82L298.50-10.82L298.50-10.82Q300.10-9.73 300.10-7.33L300.10-7.33L300.10-7.33Q300.10-4.93 298.88-3.39L298.88-3.39L298.88-3.39Q297.66-1.86 295.68-0.83L295.68-0.83L295.68-0.83Q291.58 1.28 287.17 1.28L287.17 1.28L287.17 1.28Q282.75 1.28 280.16 0.32L280.16 0.32L280.16 0.32Q277.57-0.64 275.84-2.43L275.84-2.43L275.84-2.43Q272.45-5.82 272.45-12.03L272.45-12.03L272.45-12.03Q272.45-21.70 277.70-27.58L277.70-27.58L277.70-27.58Q283.33-33.92 293.12-33.92L293.12-33.92L293.12-33.92Q299.20-33.92 302.21-31.36L302.21-31.36L302.21-31.36Q304.45-29.44 304.45-26.30L304.45-26.30L304.45-26.30Q304.45-15.04 284.99-15.04L284.99-15.04L284.99-15.04Q284.74-13.38 284.74-11.97L284.74-11.97L284.74-11.97Q284.74-9.02 286.05-7.90L286.05-7.90L286.05-7.90Q287.36-6.78 289.79-6.78L289.79-6.78L289.79-6.78Q292.22-6.78 294.82-7.90L294.82-7.90L294.82-7.90Q297.41-9.02 298.50-10.82ZM285.44-17.79L285.44-17.79L285.44-17.79Q289.98-17.79 292.61-20.61L292.61-20.61L292.61-20.61Q295.23-23.30 295.23-27.58L295.23-27.58L295.23-27.58Q295.23-29.06 294.69-29.86L294.69-29.86L294.69-29.86Q294.14-30.66 293.06-30.66L293.06-30.66L293.06-30.66Q291.97-30.66 291.04-30.24L291.04-30.24L291.04-30.24Q290.11-29.82 289.15-28.42L289.15-28.42L289.15-28.42Q286.78-25.22 285.44-17.79Z" fill="url(#editing-sticker-gradient)" stroke="#dce4eb" stroke-width="2.5"></path></g></g><style>text {
  font-size: 64px;
  font-family: Arial Black;
  dominant-baseline: central;
  text-anchor: middle;
}</style></svg>